<svg width="24" height="24" viewBox="0 0 24 24" fill="none" xmlns="http://www.w3.org/2000/svg">
<path d="M17 3.33989C18.5202 4.21758 19.7826 5.47997 20.6603 7.00017C21.538 8.52038 22 10.2448 22 12.0002C22 13.7556 21.5379 15.48 20.6602 17.0002C19.7825 18.5204 18.5201 19.7828 16.9999 20.6605C15.4797 21.5381 13.7552 22.0002 11.9998 22.0001C10.2445 22.0001 8.52002 21.538 6.99984 20.6603C5.47965 19.7826 4.21729 18.5202 3.33963 17C2.46198 15.4797 1.99996 13.7553 2 11.9999L2.005 11.6759C2.061 9.94888 2.56355 8.26585 3.46364 6.79089C4.36373 5.31592 5.63065 4.09934 7.14089 3.25977C8.65113 2.42021 10.3531 1.98629 12.081 2.00033C13.8089 2.01437 15.5036 2.47589 17 3.33989ZM12 14.9999C11.7348 14.9999 11.4804 15.1052 11.2929 15.2928C11.1054 15.4803 11 15.7347 11 15.9999V16.0099C11 16.2751 11.1054 16.5295 11.2929 16.717C11.4804 16.9045 11.7348 17.0099 12 17.0099C12.2652 17.0099 12.5196 16.9045 12.7071 16.717C12.8946 16.5295 13 16.2751 13 16.0099V15.9999C13 15.7347 12.8946 15.4803 12.7071 15.2928C12.5196 15.1052 12.2652 14.9999 12 14.9999ZM12 7.99989C11.7348 7.99989 11.4804 8.10525 11.2929 8.29279C11.1054 8.48032 11 8.73468 11 8.99989V12.9999C11 13.2651 11.1054 13.5195 11.2929 13.707C11.4804 13.8945 11.7348 13.9999 12 13.9999C12.2652 13.9999 12.5196 13.8945 12.7071 13.707C12.8946 13.5195 13 13.2651 13 12.9999V8.99989C13 8.73468 12.8946 8.48032 12.7071 8.29279C12.5196 8.10525 12.2652 7.99989 12 7.99989Z" fill="currentColor"/>
</svg>
